<svg width="1000" height="1000" viewBox="0 0 1000 1000" xmlns="http://www.w3.org/2000/svg"><defs/><path fill="#60a5fa" transform="matrix(0.4765884606864345 0 0 0.4765884606864345 1316.1181731647227 158.27964948842225)" d="M -1400.06698128667 509.12725564841 C -1412.96698128667 491.32725564841 -1413.16698128667 433.62725564841 -1412.96698128667 417.02725564841 L -1387.76698128667 447.42725564841 C -1390.66698128667 449.82725564841 -1391.06698128667 454.02725564841 -1388.66698128667 456.82725564841 C -1388.36698128667 457.22725564841 -1388.06698128667 457.52725564841 -1387.66698128667 457.82725564841 L -1387.66698128667 446.22725564841 L -1408.46698128667 413.72725564841 C -1403.96698128667 415.12725564841 -1396.46698128667 417.52725564841 -1387.66698128667 420.62725564841 L -1387.66698128667 409.72725564841 C -1395.16698128667 407.42725564841 -1401.46698128667 405.42725564841 -1405.26698128667 404.12725564841 L -1387.66698128667 397.12725564841 L -1387.66698128667 394.12725564841 L -1407.06698128667 399.22725564841 C -1403.46698128667 394.02725564841 -1396.26698128667 384.02725564841 -1387.66698128667 373.12725564841 L -1387.66698128667 351.82725564841 C -1397.76698128667 369.02725564841 -1409.86698128667 385.62725564841 -1415.16698128667 392.82725564841 L -1417.66698128667 353.32725564841 C -1413.96698128667 353.12725564841 -1411.06698128667 349.92725564841 -1411.26698128667 346.22725564841 C -1411.46698128667 342.52725564841 -1414.66698128667 339.62725564841 -1418.36698128667 339.82725564841 C -1422.06698128667 340.02725564841 -1424.96698128667 343.22725564841 -1424.76698128667 346.92725564841 C -1424.56698128667 350.42725564841 -1421.86698128667 353.12725564841 -1418.36698128667 353.32725564841 L -1420.76698128667 392.92725564841 C -1430.76698128667 379.62725564841 -1464.76698128667 333.02725564841 -1464.86698128667 311.02725564841 C -1464.86698128667 294.22725564841 -1445.26698128667 268.02725564841 -1431.46698128667 251.72725564841 L -1418.16698128667 274.52725564841 L -1404.96698128667 251.72725564841 C -1399.56698128667 257.92725564841 -1393.26698128667 265.72725564841 -1387.66698128667 273.92725564841 L -1387.66698128667 -17.37274435159 L -2037.46698128667 -17.37274435159 L -2037.46698128667 54.82725564841 L -2014.96698128667 64.62725564841 L -2019.76698128667 22.02725564841 C -1985.96698128667 30.12725564841 -1935.26698128667 45.32725564841 -1919.16698128667 67.12725564841 C -1898.06698128667 95.92725564841 -1897.36698128667 189.42725564841 -1897.66698128667 216.42725564841 L -1938.66698128667 167.22725564841 C -1933.76698128667 163.42725564841 -1932.86698128667 156.32725564841 -1936.66698128667 151.42725564841 C -1940.46698128667 146.52725564841 -1947.56698128667 145.62725564841 -1952.46698128667 149.42725564841 C -1957.36698128667 153.22725564841 -1958.26698128667 160.32725564841 -1954.46698128667 165.22725564841 C -1950.96698128667 169.72725564841 -1944.56698128667 170.92725564841 -1939.66698128667 167.92725564841 L -1904.86698128667 221.72725564841 C -1929.46698128667 214.52725564841 -2011.36698128667 188.42725564841 -2037.46698128667 161.12725564841 L -2037.46698128667 209.22725564841 C -1996.66698128667 209.52725564841 -1931.16698128667 230.32725564841 -1909.86698128667 237.52725564841 L -1969.26698128667 261.22725564841 C -1971.36698128667 255.92725564841 -1977.26698128667 253.12725564841 -1982.66698128667 254.92725564841 C -1988.46698128667 256.52725564841 -1991.86698128667 262.42725564841 -1990.36698128667 268.22725564841 C -1988.86698128667 274.02725564841 -1982.86698128667 277.42725564841 -1977.06698128667 275.92725564841 C -1976.66698128667 275.82725564841 -1976.26698128667 275.72725564841 -1975.86698128667 275.52725564841 C -1970.46698128667 273.72725564841 -1967.36698128667 267.92725564841 -1968.96698128667 262.32725564841 L -1907.06698128667 245.82725564841 C -1922.26698128667 268.02725564841 -1976.86698128667 344.02725564841 -2010.76698128667 355.32725564841 C -2018.06698128667 357.72725564841 -2027.26698128667 358.12725564841 -2037.46698128667 357.12725564841 L -2037.46698128667 768.82725564841 C -1989.76698128667 739.92725564841 -1943.46698128667 709.22725564841 -1899.66698128667 676.82725564841 C -1841.56698128667 634.32725564841 -1786.86698128667 587.42725564841 -1735.86698128667 536.52725564841 L -1649.96698128667 536.52725564841 C -1599.56698128667 586.82725564841 -1545.36698128667 633.32725564841 -1487.96698128667 675.42725564841 C -1455.76698128667 699.22725564841 -1422.16698128667 722.22725564841 -1387.66698128667 743.92725564841 L -1387.66698128667 519.42725564841 C -1392.96698128667 516.22725564841 -1397.26698128667 512.82725564841 -1400.06698128667 509.12725564841 Z M -1861.46698128667 66.82725564841 C -1845.66698128667 44.72725564841 -1795.06698128667 28.82725564841 -1761.46698128667 20.52725564841 L -1765.76698128667 63.22725564841 L -1726.66698128667 45.62725564841 C -1723.96698128667 80.12725564841 -1722.66698128667 133.02725564841 -1738.56698128667 155.12725564841 C -1759.36698128667 184.12725564841 -1848.16698128667 213.52725564841 -1873.56698128667 221.62725564841 L -1839.36698128667 167.42725564841 C -1834.56698128667 170.52725564841 -1828.16698128667 169.32725564841 -1824.76698128667 164.72725564841 C -1821.26698128667 159.62725564841 -1822.56698128667 152.72725564841 -1827.56698128667 149.22725564841 C -1832.66698128667 145.72725564841 -1839.56698128667 147.02725564841 -1843.06698128667 152.02725564841 C -1846.46698128667 156.72725564841 -1845.56698128667 163.22725564841 -1840.96698128667 166.82725564841 L -1881.06698128667 216.62725564841 C -1881.66698128667 189.42725564841 -1882.26698128667 95.82725564841 -1861.46698128667 66.82725564841 Z M -1866.26698128667 484.22725564841 L -1887.86698128667 447.22725564841 L -1909.06698128667 484.52725564841 C -1931.56698128667 458.22725564841 -1963.66698128667 415.72725564841 -1963.86698128667 388.92725564841 C -1963.86698128667 353.22725564841 -1909.66698128667 277.22725564841 -1893.56698128667 255.52725564841 L -1889.26698128667 319.42725564841 C -1895.26698128667 319.72725564841 -1899.96698128667 324.92725564841 -1899.56698128667 330.92725564841 C -1899.16698128667 336.92725564841 -1894.06698128667 341.62725564841 -1888.06698128667 341.22725564841 C -1882.06698128667 340.82725564841 -1877.36698128667 335.72725564841 -1877.76698128667 329.72725564841 C -1878.06698128667 324.12725564841 -1882.56698128667 319.72725564841 -1888.06698128667 319.42725564841 L -1884.56698128667 255.42725564841 C -1868.26698128667 276.92725564841 -1812.76698128667 352.22725564841 -1812.56698128667 387.92725564841 C -1812.56698128667 415.02725564841 -1843.96698128667 457.62725564841 -1866.26698128667 484.22725564841 Z M -1687.66698128667 299.82725564841 L -1658.76698128667 331.42725564841 C -1690.36698128667 344.52725564841 -1740.36698128667 362.02725564841 -1766.26698128667 353.82725564841 C -1800.26698128667 343.02725564841 -1855.76698128667 267.72725564841 -1871.36698128667 245.72725564841 L -1809.16698128667 261.42725564841 C -1808.86698128667 267.52725564841 -1803.66698128667 272.22725564841 -1797.56698128667 271.82725564841 C -1791.46698128667 271.52725564841 -1786.76698128667 266.32725564841 -1787.16698128667 260.22725564841 C -1787.46698128667 254.12725564841 -1792.66698128667 249.42725564841 -1798.76698128667 249.82725564841 C -1804.36698128667 250.12725564841 -1808.96698128667 254.62725564841 -1809.16698128667 260.22725564841 L -1868.96698128667 237.42725564841 C -1843.46698128667 228.52725564841 -1754.86698128667 199.42725564841 -1720.66698128667 209.92725564841 C -1694.76698128667 218.12725564841 -1664.16698128667 261.32725564841 -1645.76698128667 290.62725564841 L -1687.66698128667 299.82725564841 Z M -1567.46698128667 370.82725564841 L -1541.56698128667 365.22725564841 L -1559.26698128667 345.62725564841 C -1540.36698128667 337.22725564841 -1509.46698128667 326.52725564841 -1493.46698128667 332.02725564841 C -1472.46698128667 338.82725564841 -1438.46698128667 385.32725564841 -1428.86698128667 399.02725564841 L -1466.86698128667 389.12725564841 C -1467.06698128667 385.32725564841 -1470.26698128667 382.42725564841 -1474.06698128667 382.62725564841 C -1477.86698128667 382.82725564841 -1480.76698128667 386.02725564841 -1480.56698128667 389.82725564841 C -1480.36698128667 393.62725564841 -1477.16698128667 396.52725564841 -1473.36698128667 396.32725564841 C -1469.86698128667 396.12725564841 -1467.06698128667 393.32725564841 -1466.86698128667 389.82725564841 L -1429.96698128667 404.32725564841 C -1445.66698128667 409.72725564841 -1500.66698128667 427.72725564841 -1521.26698128667 420.92725564841 C -1537.36698128667 415.72725564841 -1556.16698128667 389.02725564841 -1567.46698128667 370.82725564841 Z M -1435.66698128667 509.22725564841 C -1445.46698128667 522.72725564841 -1476.76698128667 532.02725564841 -1497.46698128667 537.52725564841 L -1494.76698128667 511.22725564841 L -1518.86698128667 522.22725564841 C -1520.46698128667 500.62725564841 -1521.06698128667 467.92725564841 -1511.16698128667 454.32725564841 C -1498.26698128667 436.42725564841 -1443.36698128667 418.52725564841 -1427.46698128667 413.62725564841 L -1448.66698128667 447.02725564841 C -1451.66698128667 444.92725564841 -1455.86698128667 445.72725564841 -1457.96698128667 448.72725564841 C -1460.06698128667 451.72725564841 -1459.26698128667 455.92725564841 -1456.26698128667 458.02725564841 C -1453.36698128667 460.22725564841 -1449.16698128667 459.72725564841 -1446.86698128667 456.72725564841 C -1444.66698128667 453.82725564841 -1445.16698128667 449.62725564841 -1448.16698128667 447.32725564841 L -1423.06698128667 416.92725564841 C -1423.06698128667 433.62725564841 -1423.06698128667 491.42725564841 -1435.66698128667 509.22725564841 Z"/><path fill="#60a5fa" transform="matrix(0.4765884606864345 0 0 0.4765884606864345 1316.1181731647227 158.27964948842225)" d="M -1395.66698128666 756.72725564841 C -1430.26698128666 734.92725564841 -1464.36698128666 711.72725564841 -1496.86698128666 687.62725564841 C -1512.76698128666 676.02725564841 -1528.36698128666 664.02725564841 -1543.76698128666 651.62725564841 C -1548.16698128667 650.52725564841 -1551.36698128666 649.72725564841 -1552.16698128667 649.42725564841 C -1555.46698128667 648.02725564841 -1484.36698128666 743.42725564841 -1485.06698128666 747.42725564841 C -1485.76698128666 751.42725564841 -1625.26698128666 632.72725564841 -1625.26698128666 632.72725564841 C -1625.26698128666 632.72725564841 -1607.16698128667 742.82725564841 -1607.16698128667 748.92725564841 C -1607.16698128667 755.02725564841 -1666.16698128667 643.52725564841 -1668.06698128666 642.42725564841 C -1669.86698128666 641.32725564841 -1674.06698128666 778.62725564841 -1672.06698128666 786.92725564841 C -1669.96698128667 795.22725564841 -1727.86698128666 638.62725564841 -1727.86698128666 638.62725564841 L -1833.86698128666 728.52725564841 L -1800.96698128667 641.92725564841 C -1820.76698128666 652.32725564841 -1848.36698128666 664.82725564841 -1872.26698128666 675.22725564841 C -1878.36698128666 679.92725564841 -1884.56698128666 684.52725564841 -1890.76698128666 689.02725564841 C -1933.36698128666 720.52725564841 -1980.06698128666 751.72725564841 -2029.66698128667 781.72725564841 L -2037.16698128667 786.32725564841 L -2037.16698128667 979.72725564841 L -1387.36698128666 979.72725564841 L -1387.36698128666 761.92725564841 L -1395.66698128666 756.72725564841 Z"/><path id="text" fill="#60a5fa" transform="matrix(1.703395109795982 0 0 1.703395109795982 -11.283289207288584 1001.0917925556768)" d="M 160.66742857143 -92.34837942857 L 160.66742857143 -152.82837942857 C 160.66742857143 -154.17237942857 160.97142857143 -155.14837942857 161.57942857143 -155.75637942857 C 162.18742857143 -156.36437942857 163.16342857143 -156.66837942857 164.50742857143 -156.66837942857 L 183.22742857143 -156.66837942857 C 199.16342857143 -156.66837942857 207.13142857143 -150.65237942857 207.13142857143 -138.62037942857 C 207.13142857143 -135.03637942857 206.12342857143 -131.91637942857 204.10742857143 -129.26037942857 C 202.09142857143 -126.60437942857 199.35542857143 -124.63637942857 195.89942857143 -123.35637942857 L 195.89942857143 -122.97237942857 C 197.11542857143 -122.52437942857 198.36342857143 -121.45237942857 199.64342857143 -119.75637942857 C 200.92342857143 -118.06037942857 201.97942857143 -116.18837942857 202.81142857143 -114.14037942857 L 211.25942857143 -93.02037942857 C 211.57942857143 -92.18837942857 211.73942857143 -91.58037942857 211.73942857143 -91.19637942857 C 211.73942857143 -90.62037942857 211.25942857143 -90.15637942857 210.29942857143 -89.80437942857 C 209.33942857143 -89.45237942857 207.89942857143 -89.27637942857 205.97942857143 -89.27637942857 L 202.04342857143 -89.27637942857 C 198.90742857143 -89.27637942857 197.05142857143 -89.94837942857 196.47542857143 -91.29237942857 L 188.89142857143 -110.01237942857 C 187.80342857143 -112.12437942857 186.63542857143 -113.61237942857 185.38742857143 -114.47637942857 C 184.13942857143 -115.34037942857 182.07542857143 -115.77237942857 179.19542857143 -115.77237942857 L 175.45142857143 -115.77237942857 L 175.45142857143 -92.34837942857 C 175.45142857143 -90.30037942857 173.53142857143 -89.27637942857 169.69142857143 -89.27637942857 L 166.42742857143 -89.27637942857 C 162.58742857143 -89.27637942857 160.66742857143 -90.30037942857 160.66742857143 -92.34837942857 Z M 184.57142857143 -128.54037942857 C 186.55542857143 -128.54037942857 188.28342857143 -129.34037942857 189.75542857143 -130.94037942857 C 191.22742857143 -132.54037942857 191.96342857143 -134.49237942857 191.96342857143 -136.79637942857 C 191.96342857143 -139.03637942857 191.24342857143 -140.81237942857 189.80342857143 -142.12437942857 C 188.36342857143 -143.43637942857 186.39542857143 -144.09237942857 183.89942857143 -144.09237942857 L 175.45142857143 -144.09237942857 L 175.45142857143 -128.54037942857 L 184.57142857143 -128.54037942857 Z M 222.82742857143 -95.46837942857 C 218.69942857143 -99.98037942857 216.63542857143 -106.23637942857 216.63542857143 -114.23637942857 C 216.63542857143 -123.26037942857 218.69942857143 -129.88437942857 222.82742857143 -134.10837942857 C 226.95542857143 -138.33237942857 232.66742857143 -140.44437942857 239.96342857143 -140.44437942857 C 247.06742857143 -140.44437942857 252.29942857143 -138.14037942857 255.65942857143 -133.53237942857 C 259.01942857143 -128.92437942857 260.69942857143 -122.97237942857 260.69942857143 -115.67637942857 C 260.69942857143 -114.90837942857 260.04342857143 -113.77237942857 258.73142857143 -112.26837942857 C 257.41942857143 -110.76437942857 256.44342857143 -110.01237942857 255.80342857143 -110.01237942857 L 231.32342857143 -110.01237942857 C 231.64342857143 -106.36437942857 232.73142857143 -103.77237942857 234.58742857143 -102.23637942857 C 236.44342857143 -100.70037942857 239.03542857143 -99.93237942857 242.36342857143 -99.93237942857 C 244.15542857143 -99.93237942857 245.78742857143 -100.14037942857 247.25942857143 -100.55637942857 C 248.73142857143 -100.97237942857 250.26742857143 -101.50037942857 251.86742857143 -102.14037942857 C 252.89142857143 -102.65237942857 253.59542857143 -102.90837942857 253.97942857143 -102.90837942857 C 254.61942857143 -102.90837942857 255.33942857143 -102.44437942857 256.13942857143 -101.51637942857 C 256.93942857143 -100.58837942857 257.61142857143 -99.53237942857 258.15542857143 -98.34837942857 C 258.69942857143 -97.16437942857 258.97142857143 -96.25237942857 258.97142857143 -95.61237942857 C 258.97142857143 -94.14037942857 257.97942857143 -92.87637942857 255.99542857143 -91.82037942857 C 254.01142857143 -90.76437942857 251.64342857143 -89.98037942857 248.89142857143 -89.46837942857 C 246.13942857143 -88.95637942857 243.73942857143 -88.70037942857 241.69142857143 -88.70037942857 C 233.24342857143 -88.70037942857 226.95542857143 -90.95637942857 222.82742857143 -95.46837942857 Z M 246.87542857143 -119.51637942857 C 246.87542857143 -122.46037942857 246.29942857143 -124.81237942857 245.14742857143 -126.57237942857 C 243.99542857143 -128.33237942857 242.26742857143 -129.21237942857 239.96342857143 -129.21237942857 C 235.22742857143 -129.21237942857 232.34742857143 -125.98037942857 231.32342857143 -119.51637942857 L 246.87542857143 -119.51637942857 Z M 273.37142857143 -94.98837942857 C 269.40342857143 -99.18037942857 267.41942857143 -105.59637942857 267.41942857143 -114.23637942857 C 267.41942857143 -122.94037942857 269.41942857143 -129.48437942857 273.41942857143 -133.86837942857 C 277.41942857143 -138.25237942857 283.64342857143 -140.44437942857 292.09142857143 -140.44437942857 C 295.99542857143 -140.44437942857 299.62742857143 -139.85237942857 302.98742857143 -138.66837942857 C 306.34742857143 -137.48437942857 308.02742857143 -135.86837942857 308.02742857143 -133.82037942857 C 308.02742857143 -132.86037942857 307.37142857143 -131.38837942857 306.05942857143 -129.40437942857 C 304.74742857143 -127.42037942857 303.70742857143 -126.42837942857 302.93942857143 -126.42837942857 C 302.68342857143 -126.42837942857 302.10742857143 -126.65237942857 301.21142857143 -127.10037942857 C 299.93142857143 -127.74037942857 298.66742857143 -128.25237942857 297.41942857143 -128.63637942857 C 296.17142857143 -129.02037942857 294.65142857143 -129.21237942857 292.85942857143 -129.21237942857 C 289.08342857143 -129.21237942857 286.33142857143 -128.02837942857 284.60342857143 -125.66037942857 C 282.87542857143 -123.29237942857 282.01142857143 -119.61237942857 282.01142857143 -114.62037942857 C 282.01142857143 -109.62837942857 282.82742857143 -105.93237942857 284.45942857143 -103.53237942857 C 286.09142857143 -101.13237942857 288.69942857143 -99.93237942857 292.28342857143 -99.93237942857 C 293.94742857143 -99.93237942857 295.43542857143 -100.10837942857 296.74742857143 -100.46037942857 C 298.05942857143 -100.81237942857 299.14742857143 -101.14837942857 300.01142857143 -101.46837942857 C 300.87542857143 -101.78837942857 301.43542857143 -102.01237942857 301.69142857143 -102.14037942857 C 302.71542857143 -102.52437942857 303.29142857143 -102.71637942857 303.41942857143 -102.71637942857 C 304.05942857143 -102.71637942857 304.77942857143 -102.25237942857 305.57942857143 -101.32437942857 C 306.37942857143 -100.39637942857 307.05142857143 -99.34037942857 307.59542857143 -98.15637942857 C 308.13942857143 -96.97237942857 308.41142857143 -96.06037942857 308.41142857143 -95.42037942857 C 308.41142857143 -93.82037942857 307.33942857143 -92.50837942857 305.19542857143 -91.48437942857 C 303.05142857143 -90.46037942857 300.63542857143 -89.74037942857 297.94742857143 -89.32437942857 C 295.25942857143 -88.90837942857 293.14742857143 -88.70037942857 291.61142857143 -88.70037942857 C 283.41942857143 -88.70037942857 277.33942857143 -90.79637942857 273.37142857143 -94.98837942857 Z M 319.93142857143 -95.37237942857 C 315.96342857143 -99.82037942857 313.97942857143 -106.23637942857 313.97942857143 -114.62037942857 C 313.97942857143 -123.00437942857 315.96342857143 -129.40437942857 319.93142857143 -133.82037942857 C 323.89942857143 -138.23637942857 329.69142857143 -140.44437942857 337.30742857143 -140.44437942857 C 344.92342857143 -140.44437942857 350.69942857143 -138.23637942857 354.63542857143 -133.82037942857 C 358.57142857143 -129.40437942857 360.53942857143 -123.00437942857 360.53942857143 -114.62037942857 C 360.53942857143 -106.23637942857 358.57142857143 -99.82037942857 354.63542857143 -95.37237942857 C 350.69942857143 -90.92437942857 344.92342857143 -88.70037942857 337.30742857143 -88.70037942857 C 329.69142857143 -88.70037942857 323.89942857143 -90.92437942857 319.93142857143 -95.37237942857 Z M 343.97942857143 -103.62837942857 C 345.41942857143 -106.09237942857 346.13942857143 -109.75637942857 346.13942857143 -114.62037942857 C 346.13942857143 -119.48437942857 345.41942857143 -123.13237942857 343.97942857143 -125.56437942857 C 342.53942857143 -127.99637942857 340.31542857143 -129.21237942857 337.30742857143 -129.21237942857 C 334.29942857143 -129.21237942857 332.05942857143 -127.99637942857 330.58742857143 -125.56437942857 C 329.11542857143 -123.13237942857 328.37942857143 -119.48437942857 328.37942857143 -114.62037942857 C 328.37942857143 -104.82837942857 331.35542857143 -99.93237942857 337.30742857143 -99.93237942857 C 340.31542857143 -99.93237942857 342.53942857143 -101.16437942857 343.97942857143 -103.62837942857 Z M 436.23542857143 -136.65237942857 C 438.50742857143 -134.12437942857 439.64342857143 -130.20437942857 439.64342857143 -124.89237942857 L 439.64342857143 -92.34837942857 C 439.64342857143 -90.30037942857 437.72342857143 -89.27637942857 433.88342857143 -89.27637942857 L 431.19542857143 -89.27637942857 C 427.35542857143 -89.27637942857 425.43542857143 -90.30037942857 425.43542857143 -92.34837942857 L 425.43542857143 -122.78037942857 C 425.43542857143 -124.76437942857 425.00342857143 -126.25237942857 424.13942857143 -127.24437942857 C 423.27542857143 -128.23637942857 421.81942857143 -128.73237942857 419.77142857143 -128.73237942857 C 416.82742857143 -128.73237942857 414.29942857143 -126.90837942857 412.18742857143 -123.26037942857 L 412.18742857143 -92.34837942857 C 412.18742857143 -90.30037942857 410.26742857143 -89.27637942857 406.42742857143 -89.27637942857 L 403.73942857143 -89.27637942857 C 399.89942857143 -89.27637942857 397.97942857143 -90.30037942857 397.97942857143 -92.34837942857 L 397.97942857143 -122.78037942857 C 397.97942857143 -124.76437942857 397.54742857143 -126.25237942857 396.68342857143 -127.24437942857 C 395.81942857143 -128.23637942857 394.36342857143 -128.73237942857 392.31542857143 -128.73237942857 C 390.58742857143 -128.73237942857 389.08342857143 -128.17237942857 387.80342857143 -127.05237942857 C 386.52342857143 -125.93237942857 385.49942857143 -124.63637942857 384.73142857143 -123.16437942857 L 384.73142857143 -92.34837942857 C 384.73142857143 -90.30037942857 382.81142857143 -89.27637942857 378.97142857143 -89.27637942857 L 376.28342857143 -89.27637942857 C 372.44342857143 -89.27637942857 370.52342857143 -90.30037942857 370.52342857143 -92.34837942857 L 370.52342857143 -122.78037942857 C 370.52342857143 -125.59637942857 370.44342857143 -127.75637942857 370.28342857143 -129.26037942857 C 370.12342857143 -130.76437942857 369.91542857143 -132.44437942857 369.65942857143 -134.30037942857 C 369.46742857143 -135.19637942857 369.37142857143 -135.86837942857 369.37142857143 -136.31637942857 C 369.37142857143 -137.34037942857 370.66742857143 -138.10837942857 373.25942857143 -138.62037942857 C 375.85142857143 -139.13237942857 378.13942857143 -139.38837942857 380.12342857143 -139.38837942857 C 381.27542857143 -139.38837942857 382.07542857143 -138.95637942857 382.52342857143 -138.09237942857 C 382.97142857143 -137.22837942857 383.30742857143 -136.28437942857 383.53142857143 -135.26037942857 C 383.75542857143 -134.23637942857 383.89942857143 -133.53237942857 383.96342857143 -133.14837942857 C 385.49942857143 -135.19637942857 387.53142857143 -136.92437942857 390.05942857143 -138.33237942857 C 392.58742857143 -139.74037942857 395.29142857143 -140.44437942857 398.17142857143 -140.44437942857 C 401.49942857143 -140.44437942857 404.20342857143 -139.85237942857 406.28342857143 -138.66837942857 C 408.36342857143 -137.48437942857 409.88342857143 -135.64437942857 410.84342857143 -133.14837942857 C 412.44342857143 -135.19637942857 414.55542857143 -136.92437942857 417.17942857143 -138.33237942857 C 419.80342857143 -139.74037942857 422.61942857143 -140.44437942857 425.62742857143 -140.44437942857 C 430.42742857143 -140.44437942857 433.96342857143 -139.18037942857 436.23542857143 -136.65237942857 Z"/></svg>